<svg xmlns="http://www.w3.org/2000/svg" version="1.0" width="1024.000000pt" height="1024.000000pt" viewBox="0 0 1024.000000 1024.000000" preserveAspectRatio="xMidYMid meet" transform="matrix(1, 0, 0, 1, 0, 0)">

<g transform="translate(0.000000,1024.000000) scale(0.100000,-0.100000)" fill="#d30c0c" stroke="none">
<path d="M7604 8006 c-76 -24 -163 -98 -256 -216 -52 -66 -190 -262 -186 -264 2 -2 50 -33 108 -71 112 -73 264 -182 345 -250 28 -23 104 -86 170 -140 66 -55 158 -133 204 -174 l84 -74 19 24 c49 62 324 480 344 524 18 37 24 68 24 116 0 59 -4 73 -32 115 -18 27 -67 75 -108 107 -125 96 -340 238 -420 276 -65 31 -85 36 -165 38 -56 2 -106 -2 -131 -11z m172 -161 c19 -8 54 -30 77 -48 23 -19 70 -53 105 -77 66 -45 73 -57 43 -84 -17 -16 -24 -14 -135 44 -139 72 -164 75 -203 23 -40 -53 -99 -113 -111 -113 -15 0 -93 62 -106 84 -9 15 -7 20 9 30 11 6 52 44 91 84 l72 72 61 0 c34 0 77 -7 97 -15z" fill="#f59e0b"/>
<path d="M3258 8000 c-75 -19 -149 -84 -180 -157 -16 -40 -11 -596 6 -638 36 -86 129 -145 229 -145 100 0 179 47 225 133 l27 52 3 281 c4 305 2 316 -52 387 -53 69 -171 108 -258 87z" fill="#f59e0b"/>
<path d="M5100 7997 c-55 -17 -144 -112 -158 -169 -19 -74 -16 -544 3 -599 23 -64 59 -104 120 -134 106 -52 233 -31 304 50 59 68 61 77 64 392 l2 288 -29 53 c-61 109 -184 157 -306 119z" fill="#f59e0b"/>
<path d="M2469 7496 c-158 -56 -282 -181 -329 -333 -18 -59 -19 -123 -20 -1970 -2 -1878 -1 -1909 18 -1964 52 -145 154 -244 312 -301 l65 -23 773 0 774 0 26 30 c37 41 215 355 207 363 -4 4 -402 7 -886 7 -870 1 -879 1 -906 21 -16 12 -34 32 -40 45 -10 19 -12 378 -10 1669 l2 1645 1992 5 1991 5 53 70 c28 39 63 82 77 97 22 24 24 33 19 81 -9 70 -55 182 -112 268 -82 123 -214 221 -371 276 -75 26 -90 28 -296 31 l-218 4 0 -109 c0 -189 -32 -283 -126 -378 -117 -116 -297 -147 -447 -77 -91 42 -150 100 -194 189 -37 74 -37 76 -41 224 l-4 149 -533 0 -533 0 -4 -157 c-3 -144 -6 -163 -29 -213 -143 -307 -572 -316 -724 -14 -29 57 -30 64 -33 222 l-4 162 -191 0 c-175 0 -198 -2 -258 -24z" fill="#f59e0b"/>
<path d="M7132 7331 c-56 -14 -108 -56 -133 -108 -19 -39 -24 -64 -24 -133 l0 -85 -149 -195 c-122 -158 -303 -396 -311 -408 -1 -1 -49 20 -106 47 -180 86 -260 96 -359 45 -67 -34 -88 -59 -260 -309 -87 -126 -283 -411 -437 -632 -153 -221 -291 -428 -308 -460 -27 -51 -30 -70 -33 -161 -5 -124 17 -206 84 -326 l44 -79 -84 -151 c-195 -350 -316 -579 -331 -624 -9 -26 -20 -94 -24 -151 l-8 -105 -79 -154 c-43 -85 -125 -236 -181 -335 -56 -100 -101 -182 -100 -183 20 -20 947 623 1211 840 27 22 81 56 120 76 66 34 76 44 154 151 114 157 102 149 190 136 145 -21 320 20 426 101 51 38 80 78 454 622 97 140 238 345 314 455 76 110 148 218 159 240 32 59 36 146 10 219 l-21 60 132 200 c72 111 180 276 241 368 67 103 114 165 121 161 6 -4 45 -32 86 -63 87 -66 103 -75 149 -84 68 -13 153 30 186 95 22 42 19 124 -6 168 -19 33 -359 323 -548 467 -81 62 -219 154 -231 154 -4 0 -44 -52 -90 -115 -49 -69 -89 -115 -99 -115 -18 0 -111 55 -111 65 0 4 17 32 39 63 21 31 57 88 80 125 l41 68 -52 24 c-64 28 -112 36 -156 26z m154 -499 l52 -37 -105 -140 c-58 -77 -139 -187 -181 -245 -42 -58 -100 -138 -129 -178 l-54 -73 -82 62 c-45 34 -84 64 -86 65 -6 5 382 565 427 616 14 17 17 16 61 -8 25 -14 69 -42 97 -62z m-965 -536 c205 -103 315 -180 528 -365 123 -107 148 -139 121 -156 -5 -3 -52 34 -102 82 -143 136 -369 291 -381 261 -2 -7 -39 -60 -82 -118 -48 -66 -75 -111 -72 -122 3 -10 4 -18 2 -18 -2 0 -55 33 -117 73 -62 41 -135 87 -163 102 -62 35 -85 54 -85 71 0 16 109 188 140 223 32 35 94 26 211 -33z m-361 -366 c97 -49 324 -195 438 -282 174 -133 312 -252 312 -270 0 -36 -23 -27 -93 37 -123 113 -378 296 -412 295 -16 -1 -98 -119 -92 -134 3 -7 -77 36 -176 96 -110 66 -181 115 -181 124 2 16 83 145 99 156 19 14 45 8 105 -22z m-168 -331 c198 -109 397 -251 635 -453 68 -58 86 -87 63 -101 -6 -4 -43 24 -83 62 -87 82 -249 205 -347 264 l-72 42 -24 -29 c-13 -16 -34 -49 -46 -75 l-23 -45 -65 41 c-36 23 -111 68 -167 100 -57 32 -108 64 -114 71 -9 11 -2 29 32 80 54 84 65 94 95 94 13 0 66 -23 116 -51z m-188 -319 c133 -74 311 -195 432 -292 137 -111 264 -221 264 -229 0 -3 -7 -12 -15 -19 -13 -11 -27 -2 -88 57 -105 101 -418 328 -430 312 -29 -36 -189 -271 -193 -283 -4 -11 5 -32 26 -57 l32 -41 -33 18 c-69 35 -288 176 -313 201 -29 29 -47 82 -39 115 3 13 31 59 63 103 31 44 71 101 89 128 44 65 67 64 205 -13z m-164 -761 c42 -22 70 -44 70 -53 0 -4 -37 -60 -82 -124 -112 -161 -278 -399 -354 -508 -90 -130 -135 -228 -142 -311 l-5 -67 -101 -104 c-56 -57 -127 -127 -159 -154 -49 -43 -56 -47 -47 -24 17 46 38 82 117 203 74 114 78 121 84 193 9 96 33 157 120 311 80 138 271 446 361 582 65 96 63 96 138 56z m301 -210 c16 -11 29 -28 29 -37 0 -24 -30 -66 -87 -125 -49 -50 -143 -122 -127 -96 65 106 74 125 74 169 0 36 6 52 29 78 35 38 43 39 82 11z" fill="#f59e0b"/>
<path d="M3450 6154 c-80 -85 -164 -170 -188 -190 l-43 -36 -38 35 c-59 54 -88 69 -110 62 -27 -8 -81 -62 -81 -81 0 -20 229 -244 250 -244 23 0 484 474 488 502 5 29 -74 108 -108 107 -19 0 -59 -37 -170 -155z" fill="#f59e0b"/>
<path d="M2861 6234 l-31 -26 0 -312 c0 -348 0 -347 68 -366 48 -13 545 -13 593 0 69 19 74 32 77 219 l2 166 -50 -55 -50 -55 0 -80 c0 -50 -5 -86 -12 -93 -19 -19 -501 -17 -517 2 -8 9 -11 88 -9 267 l3 254 205 5 205 5 44 48 44 47 -271 0 -270 0 -31 -26z" fill="#f59e0b"/>
<path d="M3415 5090 c-99 -104 -185 -189 -191 -190 -7 0 -34 20 -62 45 -63 56 -94 59 -140 12 -18 -18 -32 -40 -32 -48 0 -23 223 -239 247 -239 18 0 100 81 416 404 46 48 77 88 77 101 0 30 -80 105 -110 104 -19 -1 -70 -48 -205 -189z" fill="#f59e0b"/>
<path d="M2893 5229 c-65 -19 -66 -25 -64 -367 l1 -307 30 -27 30 -28 311 0 311 0 29 29 29 29 0 158 0 158 -50 -49 -50 -49 0 -77 c0 -53 -4 -80 -14 -88 -9 -8 -88 -11 -267 -9 l-254 3 0 260 0 260 207 3 206 2 42 50 42 50 -44 1 c-291 6 -469 5 -495 -2z" fill="#f59e0b"/>
<path d="M2893 4219 c-63 -18 -63 -21 -63 -365 l0 -312 31 -26 31 -26 299 0 c319 0 344 3 369 49 6 12 10 133 10 320 l0 301 -29 32 -29 33 -294 2 c-163 1 -307 -2 -325 -8z m551 -99 l26 -10 0 -249 c0 -198 -3 -251 -14 -260 -9 -8 -88 -11 -267 -9 l-254 3 -3 262 c-2 243 -1 262 15 266 36 9 472 7 497 -3z" fill="#f59e0b"/>
<path d="M4537 2694 c-92 -191 -103 -243 -65 -309 60 -102 214 -114 280 -22 26 36 35 112 18 162 -7 20 -44 104 -84 185 l-71 147 -78 -163z m62 -225 c1 -50 -15 -73 -45 -67 -10 2 -22 16 -27 32 -8 24 -4 40 24 99 l34 70 7 -44 c3 -24 7 -65 7 -90z" fill="#f59e0b"/>
</g>
</svg>